<svg width="140" height="36" viewBox="0 0 140 36" fill="none" xmlns="http://www.w3.org/2000/svg">
<path d="M14.5316 2L4.18307 12.3848L1 15.5766V20.4234L14.5316 34L24.88 23.6198L28.0631 20.4234V15.5766L14.5316 2Z" fill="white" stroke="white" stroke-width="2"/>
<path d="M4.18307 17.2225V12.3848L1 15.5766V20.4234L4.18307 17.2225Z" fill="#A6AFB4"/>
<path d="M28.0631 15.5767H28.0586L24.8801 18.7685V18.773L24.8755 18.7685V23.6153H24.8801L28.0631 20.4235V15.5767Z" fill="#A6AFB4"/>
<path d="M4.18304 17.2271L14.5315 27.6118V22.7695L4.18304 12.3848V17.2271Z" fill="white"/>
<path d="M14.5316 13.235L24.8755 23.6152V18.7684L14.5316 8.38818V13.235Z" fill="white"/>
<path d="M14.5316 13.2351V27.6119L4.17855 17.2226L1 20.4235L14.5316 34.0001L24.8755 23.6199V23.6153L14.5316 13.2351Z" fill="black"/>
<path d="M14.5315 2L4.18304 12.3848L14.5315 22.7696V8.3882L24.8755 18.7684L24.88 18.773V18.7684L28.0586 15.5766L14.5315 2Z" fill="#EE2E27"/>
<path d="M45.5002 23.9926H39.0798L39.4546 22.9559C39.6261 22.4831 39.6532 22.1784 39.5359 22.042C39.4185 21.9102 39.1656 21.842 38.7818 21.842C38.3619 21.842 38.0143 21.9284 37.7344 22.1057C37.4544 22.283 37.2513 22.5467 37.1248 22.9014C36.9623 23.347 36.9668 23.6834 37.1294 23.9153C37.2829 24.1472 37.8337 24.4336 38.7818 24.7746C41.4954 25.7658 43.1389 26.566 43.7213 27.1753C44.2992 27.7982 44.3399 28.7894 43.8432 30.1534C43.482 31.1492 42.9989 31.8812 42.3849 32.3495C41.7708 32.8224 40.773 33.2088 39.3869 33.5226C38.0008 33.8318 36.4656 33.9864 34.777 33.9864C32.9258 33.9864 31.4088 33.8045 30.2304 33.4407C29.0519 33.077 28.3612 32.6132 28.1625 32.0403C27.9638 31.472 28.0541 30.6627 28.4334 29.6124L28.7585 28.7076H35.1788L34.5693 30.3944C34.3842 30.9082 34.3526 31.2401 34.479 31.3947C34.61 31.5447 34.9034 31.6175 35.3685 31.6175C35.8335 31.6175 36.2083 31.5266 36.5018 31.3401C36.7952 31.1537 37.0074 30.8809 37.1429 30.5081C37.4409 29.6851 37.4183 29.1532 37.0797 28.9076C36.732 28.653 35.8065 28.2256 34.3075 27.63C32.804 27.0344 31.8242 26.6024 31.3636 26.3296C30.9031 26.0568 30.578 25.6794 30.3839 25.2066C30.1897 24.7292 30.2258 24.1245 30.4877 23.3924C30.876 22.3194 31.4178 21.5373 32.1176 21.0463C32.8175 20.5553 33.7927 20.1688 35.0569 19.8914C36.3166 19.6141 37.7705 19.4731 39.4139 19.4731C41.2109 19.4731 42.6829 19.6277 43.8387 19.9323C44.9946 20.237 45.6944 20.6189 45.9382 21.0781C46.182 21.5374 46.1053 22.3194 45.7034 23.4242L45.5002 23.9835V23.9926Z" fill="#191919"/>
<path d="M66.2288 19.7734L60.0116 26.0706L61.5783 33.7046H54.4626L53.7989 27.7302L51.6407 33.7046H44.7191L49.7579 19.7688H56.6795L54.7245 25.184L59.7768 19.7688H66.2378L66.2288 19.7734Z" fill="#EE2E27"/>
<path d="M80.2299 26.2978L79.2186 29.0986C78.8483 30.1261 78.4781 30.8809 78.1034 31.3628C77.7286 31.8448 77.1462 32.2949 76.3515 32.7178C75.5524 33.1361 74.6133 33.4452 73.5342 33.6362C72.4551 33.8272 71.2586 33.9227 69.9447 33.9227C68.4818 33.9227 67.2673 33.8408 66.3101 33.6726C65.3529 33.5044 64.6531 33.2543 64.2151 32.9087C63.7726 32.5677 63.5243 32.154 63.4611 31.6629C63.3979 31.1764 63.5423 30.4444 63.8945 29.4669L64.9511 26.5387C65.3348 25.4703 65.8586 24.6382 66.5087 24.0426C67.1634 23.447 68.1206 22.965 69.3893 22.6013C70.6581 22.2375 72.1751 22.0557 73.9495 22.0557C75.435 22.0557 76.6721 22.1739 77.6519 22.4057C78.6316 22.6376 79.345 22.9423 79.792 23.3151C80.239 23.6879 80.4918 24.0699 80.5641 24.4654C80.6318 24.861 80.5189 25.4657 80.2254 26.2887L80.2299 26.2978ZM73.927 25.4339C74.1347 24.8565 74.2069 24.4881 74.1392 24.3336C74.076 24.179 73.8412 24.1017 73.4438 24.1017C73.0465 24.1017 72.7531 24.179 72.5634 24.3336C72.3738 24.4881 72.1751 24.8565 71.9674 25.4339L70.0982 30.599C69.904 31.1355 69.8454 31.4856 69.9221 31.6447C69.9944 31.8039 70.2291 31.8857 70.6174 31.8857C71.0057 31.8857 71.3037 31.813 71.4843 31.6675C71.6649 31.522 71.8455 31.2037 72.0216 30.7081L73.927 25.4339Z" fill="#EE2E27"/>
<path d="M90.5964 22.2832L90.0953 23.3471C90.7319 22.9152 91.4363 22.5924 92.2038 22.3832C92.9714 22.1741 93.8111 22.0649 94.7187 22.0649C95.8565 22.0649 96.7324 22.2059 97.351 22.4833C97.9695 22.7652 98.3081 23.1198 98.3578 23.5472C98.4075 23.9746 98.254 24.6884 97.8973 25.6842L94.9986 33.7046H88.3841L91.2466 25.7887C91.5311 25.0021 91.653 24.5247 91.6168 24.352C91.5807 24.1792 91.3369 24.0974 90.8899 24.0974C90.4204 24.0974 90.0863 24.1974 89.8966 24.3929C89.7025 24.5884 89.4496 25.1204 89.1381 25.9933L86.3478 33.7046H79.7333L83.8645 22.2787H90.5919L90.5964 22.2832Z" fill="#191919"/>
<path d="M114.291 28.2165H105.717L104.823 30.6854C104.638 31.1992 104.588 31.5311 104.679 31.6721C104.769 31.8176 105.017 31.8903 105.424 31.8903C105.929 31.8903 106.3 31.7948 106.544 31.5948C106.783 31.3993 107.009 31.0173 107.212 30.449L107.754 28.944H114.02L113.718 29.7852C113.461 30.5036 113.176 31.0492 112.869 31.4311C112.562 31.8085 112.02 32.2177 111.239 32.6451C110.463 33.077 109.555 33.3998 108.521 33.609C107.487 33.8227 106.25 33.9273 104.81 33.9273C103.369 33.9273 102.214 33.8227 101.22 33.6181C100.222 33.4089 99.4955 33.1179 99.035 32.7451C98.5745 32.3723 98.3126 31.9631 98.2403 31.5175C98.1726 31.0719 98.2945 30.4217 98.6015 29.5715L99.8116 26.2251C100.173 25.2293 100.715 24.4382 101.437 23.8608C102.159 23.2788 103.162 22.8377 104.439 22.5286C105.717 22.2194 107.117 22.0693 108.638 22.0693C110.494 22.0693 111.962 22.2512 113.036 22.6241C114.111 22.9923 114.779 23.4879 115.041 24.1063C115.303 24.7246 115.235 25.5931 114.829 26.7025L114.282 28.2165H114.291ZM108.35 26.3615L108.647 25.5294C108.869 24.9247 108.945 24.5337 108.887 24.3609C108.828 24.1881 108.607 24.1017 108.232 24.1017C107.767 24.1017 107.451 24.1745 107.288 24.32C107.126 24.4655 106.923 24.8701 106.688 25.5249L106.39 26.3569H108.35V26.3615Z" fill="#191919"/>
<path d="M131.715 26.5798H125.448L125.922 25.2749C126.085 24.8247 126.125 24.5156 126.044 24.3519C125.963 24.1882 125.728 24.1064 125.349 24.1064C124.969 24.1064 124.685 24.1791 124.5 24.3246C124.315 24.4701 124.134 24.7929 123.958 25.2885L122.008 30.6855C121.863 31.0902 121.849 31.3903 121.976 31.5949C122.098 31.7949 122.351 31.8949 122.734 31.8949C123.181 31.8949 123.525 31.7904 123.755 31.5767C123.99 31.3675 124.211 30.9674 124.428 30.3809L124.92 29.0214H130.839C130.496 29.9444 130.184 30.631 129.904 31.0902C129.624 31.5449 129.087 32.0132 128.297 32.4997C127.507 32.9816 126.568 33.3408 125.489 33.5772C124.409 33.8182 123.132 33.9364 121.669 33.9364C119.8 33.9364 118.377 33.7682 117.407 33.4363C116.431 33.1044 115.831 32.6361 115.596 32.0268C115.361 31.4175 115.447 30.5582 115.854 29.4352L117.027 26.1797C117.38 25.2067 117.831 24.4701 118.382 23.9791C118.933 23.488 119.885 23.047 121.24 22.656C122.594 22.2695 124.139 22.074 125.877 22.074C127.615 22.074 129.01 22.2649 130.098 22.6469C131.187 23.0288 131.823 23.5153 132.017 24.0973C132.211 24.6793 132.112 25.5113 131.724 26.5843L131.715 26.5798Z" fill="#191919"/>
<path d="M78.6632 18.0636H76.0761L75.8006 18.8366C75.7419 19.0003 75.7284 19.1048 75.7555 19.1503C75.7826 19.1958 75.8548 19.2185 75.9767 19.2185C76.1302 19.2185 76.2431 19.1867 76.3154 19.1276C76.3876 19.0685 76.4554 18.9457 76.5186 18.7638L76.6856 18.291H78.5774L78.4826 18.5592C78.4058 18.782 78.32 18.9503 78.2252 19.0685C78.1304 19.1867 77.9679 19.314 77.7331 19.4504C77.4983 19.5868 77.2229 19.6868 76.9114 19.755C76.5998 19.8187 76.2251 19.8505 75.7917 19.8505C75.3582 19.8505 75.0105 19.8187 74.708 19.755C74.41 19.6914 74.1888 19.6004 74.0533 19.4822C73.9134 19.364 73.8366 19.2367 73.8186 19.0957C73.8005 18.9548 73.8366 18.7547 73.9315 18.4865L74.3017 17.4362C74.4145 17.1224 74.5771 16.8724 74.7983 16.6905C75.015 16.5086 75.3175 16.3722 75.7058 16.2722C76.0941 16.1767 76.5141 16.1267 76.9701 16.1267C77.5299 16.1267 77.9724 16.1858 78.2929 16.304C78.6135 16.4223 78.8167 16.5769 78.8935 16.7678C78.9702 16.9588 78.9522 17.2316 78.8257 17.5771L78.6587 18.05L78.6632 18.0636ZM76.8752 17.4771L76.9656 17.2134C77.0288 17.0315 77.0559 16.9088 77.0378 16.8542C77.0197 16.7996 76.952 16.7724 76.8391 16.7724C76.6992 16.7724 76.6043 16.7951 76.5547 16.8406C76.505 16.886 76.4463 17.0088 76.3741 17.2088L76.2838 17.4726H76.8752V17.4771Z" fill="#A6AFB4"/>
<path d="M81.9953 16.2043L81.8463 16.5362C82.0359 16.4043 82.2482 16.3043 82.4784 16.2361C82.7087 16.1724 82.9616 16.1406 83.2325 16.1406C83.5711 16.1406 83.8375 16.1861 84.0226 16.277C84.2077 16.368 84.307 16.4771 84.3205 16.6089C84.3341 16.7453 84.289 16.9681 84.1761 17.2819L83.2866 19.7962H81.2955L82.1714 17.3137C82.2572 17.0682 82.2978 16.9181 82.2888 16.8635C82.2797 16.809 82.2075 16.7817 82.0721 16.7817C81.9321 16.7817 81.8328 16.8135 81.7741 16.8772C81.7154 16.9409 81.6387 17.1045 81.5438 17.3773L80.686 19.8008H78.6948L79.9636 16.2088H81.9908L81.9953 16.2043Z" fill="#A6AFB4"/>
<path d="M87.5082 15.7266L87.305 16.2995H87.8423L87.6436 16.8632H87.1063L86.4245 18.7865C86.3433 19.0184 86.3162 19.1503 86.3523 19.1821C86.3884 19.2094 86.5691 19.223 86.8986 19.223L86.6954 19.7959H85.8918C85.4358 19.7959 85.1197 19.7868 84.9301 19.7641C84.745 19.7459 84.5869 19.6959 84.4696 19.6231C84.3522 19.5504 84.2844 19.464 84.2844 19.364C84.2844 19.2685 84.3431 19.0411 84.4696 18.6865L85.1152 16.8632H84.6908L84.8894 16.2995H85.3139L85.517 15.7266H87.5082Z" fill="#A6AFB4"/>
<path d="M92.1766 18.0639H89.5895L89.3141 18.8368C89.2554 19.0005 89.2419 19.1051 89.269 19.1506C89.2961 19.196 89.3683 19.2187 89.4902 19.2187C89.6437 19.2187 89.7521 19.1869 89.8288 19.1278C89.9011 19.0687 89.9688 18.9459 90.032 18.7641L90.199 18.2912H92.0909L91.996 18.5595C91.9193 18.7823 91.8335 18.9505 91.7387 19.0687C91.6484 19.1869 91.4814 19.3142 91.2466 19.4506C91.0118 19.587 90.7363 19.6871 90.4248 19.7553C90.1133 19.8189 89.7385 19.8507 89.3051 19.8507C88.8716 19.8507 88.524 19.8189 88.2215 19.7553C87.919 19.6916 87.7023 19.6007 87.5668 19.4825C87.4268 19.3642 87.3501 19.2369 87.332 19.096C87.3139 18.955 87.3501 18.755 87.4449 18.4867L87.8151 17.4364C87.928 17.1227 88.0906 16.8726 88.3118 16.6907C88.5285 16.5089 88.831 16.3725 89.2193 16.2725C89.6076 16.177 90.0275 16.127 90.4835 16.127C91.0434 16.127 91.4859 16.1861 91.8064 16.3043C92.127 16.4225 92.3302 16.5771 92.4069 16.7681C92.4837 16.959 92.4656 17.2318 92.3392 17.5774L92.1721 18.0502L92.1766 18.0639ZM90.3887 17.4774L90.479 17.2136C90.5422 17.0318 90.5693 16.909 90.5512 16.8544C90.5332 16.7999 90.47 16.7726 90.3526 16.7726C90.2126 16.7726 90.1178 16.7953 90.0681 16.8408C90.0185 16.8863 89.9598 17.009 89.8875 17.2091L89.7927 17.4728H90.3842L90.3887 17.4774Z" fill="#A6AFB4"/>
<path d="M95.4727 16.2043L95.2244 16.6817C95.6307 16.3407 96.1139 16.1634 96.6692 16.1406L96.2222 17.4046C95.8565 17.4046 95.5811 17.4319 95.3914 17.4864C95.2018 17.541 95.0709 17.6183 94.9986 17.7138C94.9264 17.8093 94.8271 18.0321 94.7051 18.3776L94.204 19.7962H92.2129L93.4816 16.2043H95.4727Z" fill="#A6AFB4"/>
<path d="M99.5362 15.7266L99.333 16.2995H99.8704L99.6717 16.8632H99.1344L98.4571 18.7865C98.3759 19.0184 98.3488 19.1503 98.3849 19.1821C98.421 19.2094 98.6016 19.223 98.9312 19.223L98.728 19.7959H97.9243C97.4728 19.7959 97.1523 19.7868 96.9626 19.7641C96.7775 19.7459 96.6241 19.6959 96.5021 19.6231C96.3802 19.5504 96.317 19.464 96.317 19.364C96.317 19.2685 96.3757 19.0411 96.5021 18.6865L97.1478 16.8632H96.7234L96.922 16.2995H97.3465L97.5496 15.7266H99.5408H99.5362Z" fill="#A6AFB4"/>
<path d="M101.636 17.5954H99.7665L99.8523 17.359C99.9516 17.0816 100.083 16.8679 100.254 16.7179C100.426 16.5678 100.706 16.4315 101.098 16.3178C101.491 16.1996 101.97 16.145 102.53 16.145C103.202 16.145 103.686 16.2087 103.984 16.3405C104.277 16.4724 104.426 16.6315 104.431 16.8225C104.431 17.0134 104.327 17.4045 104.119 17.9955L103.482 19.796H101.545L101.658 19.4732C101.491 19.6051 101.297 19.7006 101.085 19.7642C100.873 19.8279 100.629 19.8597 100.363 19.8597C100.015 19.8597 99.7123 19.8097 99.4595 19.7051C99.2067 19.6005 99.1435 19.3641 99.2744 19.0004L99.3783 18.7048C99.4731 18.4366 99.613 18.2547 99.8026 18.1592C99.9923 18.0637 100.412 17.9501 101.071 17.8182C101.776 17.6773 102.155 17.5818 102.218 17.5363C102.281 17.4863 102.34 17.3908 102.394 17.2408C102.462 17.0544 102.476 16.9316 102.448 16.8725C102.417 16.8134 102.345 16.7861 102.227 16.7861C102.092 16.7861 102.001 16.8088 101.952 16.8589C101.902 16.9089 101.843 17.0316 101.771 17.2317L101.64 17.6045L101.636 17.5954ZM102.087 18.091C101.726 18.2183 101.505 18.3274 101.424 18.4093C101.342 18.4957 101.275 18.6184 101.216 18.7821C101.148 18.9685 101.13 19.0867 101.157 19.1413C101.18 19.1959 101.261 19.2186 101.392 19.2186C101.514 19.2186 101.604 19.1959 101.658 19.155C101.713 19.114 101.767 19.0004 101.834 18.823L102.092 18.091H102.087Z" fill="#A6AFB4"/>
<path d="M107.483 16.2041L106.214 19.796H104.164L105.433 16.2041H107.483ZM107.758 15.4175L107.56 15.9813H105.51L105.708 15.4175H107.758Z" fill="#A6AFB4"/>
<path d="M110.223 16.2043L110.074 16.5362C110.264 16.4043 110.476 16.3043 110.706 16.2361C110.937 16.1724 111.19 16.1406 111.46 16.1406C111.804 16.1406 112.066 16.1861 112.251 16.277C112.436 16.368 112.535 16.4771 112.549 16.6089C112.562 16.7453 112.517 16.9681 112.404 17.2819L111.515 19.7962H109.524L110.404 17.3137C110.49 17.0682 110.53 16.9181 110.521 16.8635C110.512 16.809 110.44 16.7817 110.305 16.7817C110.165 16.7817 110.065 16.8135 110.007 16.8772C109.948 16.9409 109.871 17.1045 109.776 17.3773L108.919 19.8008H106.927L108.196 16.2088H110.223V16.2043Z" fill="#A6AFB4"/>
<path d="M115.447 16.2043L115.294 16.5498C115.497 16.4134 115.714 16.3134 115.953 16.2452C116.188 16.177 116.445 16.1406 116.716 16.1406C117.249 16.1406 117.619 16.277 117.827 16.5498C118.043 16.4134 118.265 16.3134 118.499 16.2452C118.734 16.177 118.978 16.1406 119.235 16.1406C119.574 16.1406 119.836 16.1861 120.026 16.277C120.215 16.368 120.319 16.4771 120.333 16.6089C120.351 16.7408 120.305 16.9499 120.202 17.2455L119.299 19.7962H117.362L118.188 17.4592C118.296 17.1545 118.341 16.9636 118.332 16.8908C118.323 16.8181 118.247 16.7817 118.111 16.7817C117.976 16.7817 117.867 16.8181 117.804 16.8908C117.736 16.9636 117.651 17.1545 117.542 17.4592L116.716 19.7962H114.779L115.583 17.5183C115.709 17.1636 115.768 16.9545 115.759 16.8863C115.754 16.8181 115.682 16.7817 115.542 16.7817C115.456 16.7817 115.375 16.7999 115.298 16.8363C115.222 16.8726 115.172 16.9181 115.149 16.9727C115.122 17.0272 115.082 17.1364 115.018 17.3091L114.138 19.7962H112.201L113.47 16.2043H115.438H115.447Z" fill="#A6AFB4"/>
<path d="M125.109 18.0639H122.522L122.247 18.8368C122.188 19.0005 122.175 19.1051 122.202 19.1506C122.229 19.196 122.301 19.2187 122.423 19.2187C122.576 19.2187 122.689 19.1869 122.762 19.1278C122.834 19.0687 122.902 18.9459 122.965 18.7641L123.132 18.2912H125.024L124.929 18.5595C124.852 18.7823 124.766 18.9505 124.671 19.0687C124.577 19.1869 124.414 19.3142 124.179 19.4506C123.944 19.587 123.669 19.6871 123.358 19.7553C123.046 19.8189 122.671 19.8507 122.238 19.8507C121.804 19.8507 121.457 19.8189 121.154 19.7553C120.852 19.6916 120.635 19.6007 120.499 19.4825C120.36 19.3642 120.283 19.2369 120.265 19.096C120.247 18.955 120.283 18.755 120.378 18.4867L120.748 17.4364C120.861 17.1227 121.023 16.8726 121.244 16.6907C121.461 16.5089 121.764 16.3725 122.152 16.2725C122.54 16.177 122.96 16.127 123.421 16.127C123.981 16.127 124.423 16.1861 124.744 16.3043C125.069 16.4225 125.267 16.5771 125.344 16.7681C125.421 16.959 125.403 17.2318 125.276 17.5774L125.109 18.0502V18.0639ZM123.321 17.4774L123.412 17.2136C123.475 17.0318 123.502 16.909 123.484 16.8544C123.466 16.7999 123.398 16.7726 123.285 16.7726C123.145 16.7726 123.05 16.7953 123.001 16.8408C122.951 16.8863 122.892 17.009 122.82 17.2091L122.73 17.4728H123.321V17.4774Z" fill="#A6AFB4"/>
<path d="M128.442 16.2043L128.292 16.5362C128.482 16.4043 128.694 16.3043 128.925 16.2361C129.155 16.1724 129.408 16.1406 129.679 16.1406C130.017 16.1406 130.284 16.1861 130.469 16.277C130.654 16.368 130.753 16.4771 130.767 16.6089C130.78 16.7453 130.735 16.9681 130.622 17.2819L129.733 19.7962H127.742L128.618 17.3137C128.703 17.0682 128.744 16.9181 128.735 16.8635C128.726 16.809 128.654 16.7817 128.518 16.7817C128.378 16.7817 128.279 16.8135 128.22 16.8772C128.162 16.9409 128.085 17.1045 127.99 17.3773L127.132 19.8008H125.141L126.41 16.2088H128.437L128.442 16.2043Z" fill="#A6AFB4"/>
<path d="M133.954 15.7266L133.751 16.2995H134.288L134.09 16.8632H133.552L132.871 18.7865C132.789 19.0184 132.762 19.1503 132.799 19.1821C132.835 19.2094 133.015 19.223 133.345 19.223L133.142 19.7959H132.338C131.882 19.7959 131.561 19.7868 131.376 19.7641C131.191 19.7459 131.033 19.6959 130.916 19.6231C130.794 19.5504 130.731 19.464 130.731 19.364C130.731 19.2685 130.789 19.0411 130.916 18.6865L131.561 16.8632H131.137L131.336 16.2995H131.76L131.963 15.7266H133.954Z" fill="#A6AFB4"/>
<path d="M137.336 15.7402L137.205 16.1176H136.722L136.194 17.6135H135.395L135.923 16.1176H135.449L135.584 15.7402H137.341H137.336Z" fill="#A6AFB4"/>
<path d="M139.991 15.7402L139.332 17.6135H138.632L139.075 16.3495L138.352 17.6135H137.855L138 16.3768L137.562 17.6135H136.862L137.526 15.7402H138.56C138.546 15.8539 138.533 15.9903 138.515 16.1404L138.46 16.6178L138.953 15.7402H140H139.991Z" fill="#A6AFB4"/>
</svg>
