<svg width="89" height="30" viewBox="0 0 89 30" fill="none" xmlns="http://www.w3.org/2000/svg">
<path d="M18.1072 19.2776V19.5175C18.1072 19.8837 18.1343 20.3508 18.3377 20.8054C18.7175 21.6514 19.7212 22.7878 22.2439 23.4444C22.1761 23.5833 21.6878 24.4924 21.6471 24.5807C20.1823 24.3408 18.5954 23.4822 17.9444 22.9519C17.4968 22.5984 17.2798 22.3458 17.1849 22.2322L17.1171 22.1564L17.0493 22.2322C16.9543 22.3458 16.7373 22.5857 16.2897 22.9519C15.6251 23.4822 14.0383 24.3408 12.587 24.5807C12.5328 24.4924 12.058 23.5833 11.9902 23.4444C14.5265 22.7878 15.5166 21.6388 15.8964 20.8054C16.0998 20.3508 16.127 19.8837 16.127 19.5175V19.2776H18.1207H18.1072Z" fill="#7A7A7A"/>
<path d="M22.5298 27.1101V28.3096H12.127V27.1101H22.5298Z" fill="#7A7A7A"/>
<path d="M74.8422 25.2288V28.7516C74.8422 29.0293 74.6523 29.4965 73.9199 29.4965H67.7758C67.0434 29.4965 66.8535 29.0293 66.8535 28.7516V25.2288H68.576V26.0621H73.1197V25.2288H74.8422ZM68.576 27.2616V28.297H73.1197V27.2616H68.576Z" fill="#7A7A7A"/>
<path d="M74.8279 19.0803V24.2951H73.1189V21.9971H71.6406V22.8052C71.6406 23.5123 71.0438 24.0552 70.2707 24.0552H66.1882C65.4151 24.0552 64.8184 23.4996 64.8184 22.8052V19.2823H66.5409V20.3304H69.9181V19.2823H71.6406V20.848H73.1189V19.0929H74.8279V19.0803ZM69.8367 21.5046H66.5544V22.8557H69.9316V21.5046H69.8502H69.8367Z" fill="#7A7A7A"/>
<path d="M4.13673 24.7356V27.122H9.88745V28.3089H0V27.122H2.35997V24.7356H4.13673Z" fill="#7A7A7A"/>
<path d="M8.20627 19.3914C8.81661 19.3914 9.11499 19.6565 9.11499 20.1742C9.11499 20.1742 9.11499 24.947 9.11499 25.0859H7.18905C7.18905 24.947 7.18905 22.3081 7.18905 22.3081C7.18905 22.3081 6.30745 23.3308 6.2532 23.394H0.692379V22.1818H7.20261V20.6414H0.570312V19.404H8.20627V19.3914Z" fill="#7A7A7A"/>
<path d="M32.6593 25.7673C33.256 25.7673 33.568 26.0325 33.568 26.5502C33.568 26.5502 33.568 29.4038 33.568 29.5427H31.737V26.9669H25.281V25.7673H32.6593Z" fill="#7A7A7A"/>
<path d="M33.4469 19.0803V20.7218H35.088V21.9718H33.4469V25.0022H31.643V23.386C31.643 23.386 30.7885 24.3835 30.7343 24.434H25.0785C24.2512 24.434 24.1562 23.9289 24.1562 23.7016V19.2697H30.0833V20.5197H25.9737V23.2345H31.6295V19.0803H33.4333H33.4469Z" fill="#7A7A7A"/>
<path d="M81.1201 25.7065V28.2824H87.8744V29.4819H80.7132C79.7502 29.4819 79.2891 29.141 79.2891 28.4213C79.2891 28.4213 79.2891 26.0853 79.2891 25.7065H81.1201Z" fill="#7A7A7A"/>
<path d="M77.5117 21.5143C77.5117 20.0243 78.9901 18.7996 80.8075 18.7996C82.6249 18.7996 84.0897 20.0243 84.1033 21.5269C84.1033 23.0295 82.6249 24.2542 80.8075 24.2542C78.9901 24.2542 77.5117 23.0295 77.5117 21.5269V21.5143ZM79.2342 21.5143C79.2342 22.2971 79.9395 22.9411 80.8075 22.9411C81.6755 22.9411 82.3808 22.2971 82.3808 21.5143C82.3808 20.7314 81.6755 20.0875 80.8075 20.0875C79.9395 20.0875 79.2342 20.7314 79.2342 21.5143Z" fill="#7A7A7A"/>
<path d="M87.6995 19.0498C87.6995 19.2013 87.6995 24.7444 87.6995 24.8833H85.8945V19.0498H87.6995Z" fill="#7A7A7A"/>
<path d="M40.2949 27.2759C40.2949 25.8239 41.936 24.637 43.9434 24.637C45.9507 24.637 47.5782 25.8239 47.5918 27.2759C47.5918 28.728 45.9507 29.9149 43.9434 29.9149C41.936 29.9149 40.2949 28.728 40.2949 27.2633V27.2759ZM42.1395 27.2759C42.1395 28.0714 42.9397 28.7154 43.9298 28.7154C44.9199 28.7154 45.7201 28.0714 45.7201 27.2759C45.7201 26.4804 44.9199 25.8365 43.9298 25.8365C42.9397 25.8365 42.1395 26.4804 42.1395 27.2759Z" fill="#7A7A7A"/>
<path d="M47.5798 19.0803V20.7218H49.0582V21.9718H47.5798V24.232H45.8438V19.0803H47.5798Z" fill="#7A7A7A"/>
<path d="M41.9641 19.103C41.9641 19.1788 41.9641 19.2798 41.9641 19.2798C41.9641 21.0223 43.2525 22.4617 45.1649 22.9162C45.0971 23.0425 44.6224 23.9516 44.5681 24.0652C43.144 23.7117 41.8284 22.9162 41.1367 21.9692C41.1367 21.9692 41.1096 21.9819 41.0825 22.0071C41.0553 21.9819 41.0282 21.9692 41.0282 21.9692C40.3229 22.9162 39.0209 23.7117 37.5968 24.0652C37.5425 23.9642 37.0678 23.0551 37 22.9162C38.9124 22.4617 40.2009 21.0096 40.2009 19.2798C40.2009 19.2798 40.2009 19.1788 40.2009 19.103H42.0047H41.9641Z" fill="#7A7A7A"/>
<path d="M53.8594 27.2759C53.8594 25.8239 55.5005 24.637 57.5078 24.637C59.5151 24.637 61.1427 25.8239 61.1562 27.2759C61.1562 28.728 59.5151 29.9149 57.5078 29.9149C55.5005 29.9149 53.8594 28.728 53.8594 27.2633V27.2759ZM55.7039 27.2759C55.7039 28.0714 56.5042 28.7154 57.4942 28.7154C58.4843 28.7154 59.2846 28.0714 59.2846 27.2759C59.2846 26.4804 58.4843 25.8365 57.4942 25.8365C56.5042 25.8365 55.7039 26.4804 55.7039 27.2759Z" fill="#7A7A7A"/>
<path d="M61.1424 19.0803V20.7218H62.6207V21.9718H61.1424V24.3708H59.4199V19.0803H61.1424Z" fill="#7A7A7A"/>
<path d="M57.913 19.27V20.4443H55.5259L55.5666 20.5453C55.9599 21.6564 57.045 22.5403 58.4827 22.9317C58.4149 23.058 57.9401 23.9797 57.8859 24.0807C56.5838 23.7525 55.3496 23.0075 54.7935 22.2246L54.7257 22.1236L54.6579 22.2246C54.1154 23.0075 52.8811 23.7525 51.5655 24.0807C51.5113 23.9797 51.0366 23.058 50.9688 22.9317C52.4064 22.5529 53.505 21.6691 53.8848 20.5453L53.9255 20.4443H51.5384V19.27H57.913Z" fill="#7A7A7A"/>
<path d="M13.5222 0.833221H9.08708L3.70259 5.44192V0.782715H0.230469V13.3083H3.70259V7.96723L9.20914 13.2956H13.5764L6.7 6.6667L13.5222 0.833221Z" fill="#7A7A7A"/>
<path d="M71.477 2.86882C71.0973 1.36625 69.7952 0.835938 68.4525 0.835938H65.6992C64.3429 0.835938 63.0679 1.42939 62.6611 2.86882L59.8535 13.311H63.5291L64.8176 8.50027L66.3095 10.47H69.8223L70.5954 13.3236H74.271L71.4635 2.88144L71.477 2.86882ZM64.9261 8.1341L66.2281 3.23499H67.8964L69.1984 8.1341H64.9125H64.9261Z" fill="#7A7A7A"/>
<path d="M24.5772 0.835938H17.1854C15.6934 0.835938 14.4863 1.9597 14.4863 3.36125V10.7983C14.4863 12.1872 15.6934 13.311 17.1854 13.311H24.5772C26.0691 13.311 27.2898 12.1872 27.2898 10.7983V3.36125C27.2898 1.97233 26.0827 0.835938 24.5772 0.835938ZM23.8177 10.9119H17.9585V3.22236H23.8177V10.9119Z" fill="#7A7A7A"/>
<path d="M32.9275 0.835938C31.4356 0.835938 30.2285 1.9597 30.2285 3.36125V6.46739L33.7684 9.04321V3.23499H41.5264L43.7236 0.835938H32.9275Z" fill="#7A7A7A"/>
<path d="M42.9795 7.65981L39.4396 5.08398V10.8796H31.6816L29.4844 13.2786H40.2805C41.7724 13.2786 42.9795 12.1549 42.9795 10.7533V7.64718V7.65981Z" fill="#7A7A7A"/>
<path d="M85.4481 10.9119L87.903 9.27049V3.36125C87.903 1.97233 86.6823 0.835938 85.1904 0.835938H78.531C77.039 0.835938 75.8184 1.9597 75.8184 3.36125V10.7983C75.8184 12.1872 77.0255 13.311 78.531 13.311H89.0016V10.9119H85.4481ZM84.4309 10.9119H79.304V3.22236H84.4309V10.9119Z" fill="#7A7A7A"/>
<path d="M55.4727 0.835938H45.9922V13.311H55.4727C56.9647 13.311 58.1718 12.1872 58.1718 10.7983V3.36125C58.1718 1.97233 56.9647 0.835938 55.4727 0.835938ZM54.6996 10.9119H49.4779V3.22236H54.6996V10.9119Z" fill="#7A7A7A"/>
</svg>
